#!OML:ASF F:\VICON\USERDATA\INSTALL\rory3\rory3.ASF
:FULLY-SPECIFIED
:DEGREES
114
root 0.48451575570586075 17.27104411782222 14.342539723996994 10.183904119292917 -2.3743516525823987 -2.686844773497422
lfemur -35.67483693539587 7.7808030324079756 -18.952177358973742
ltibia 50.246614432361696
lfoot -10.347298213428633 0.6687116523031769
ltoes -10.089152632708197
rfemur -27.45306777789616 -1.6829689551154896 21.566148011222968
rtibia 32.35507217379115
rfoot -13.67284830900074 3.323130588953988
rtoes 9.332593865904737
lowerback 19.25034920488593 1.6074624586837092 -1.2822887838417816
upperback 6.195281302847407 1.9309572623745526 1.2585112726091492
thorax 2.0286937335380473 0.8311679945939499 1.2661580478736678
lowerneck -13.338962509271019 0.33534267218427954 0.2843496872980792
upperneck 23.841169266509738 0.4353336872745244 -0.28525307842792774
head 9.798065667560298 0.09930056253153774 -0.15722063359699615
lclavicle 3.8785397833026743e-16 -1.4343952658733902e-15
lhumerus -30.462327768641824 -4.832561082913424 77.81948748598951
lradius 26.295265773723457
lwrist 23.606027374924487
lhand -25.817081323782933 -7.177170138608678
lfingers 7.12502
lthumb 1.2582182091451548 21.84124575398752
rclavicle 3.8692782765234206e-16 -1.4361363452930158e-15
rhumerus -29.198773667226035 -6.315177110189593 -70.69472904996917
rradius 36.653564505911646
rwrist 22.417628382969465
rhand -21.085650124508508 -24.414279963984697
rfingers 7.12502
rthumb 5.0036323992704865 -54.21626322026943
115
root 0.4863497683075459 17.26139414718647 14.257582492013661 10.15125689917555 -2.3976260167040224 -2.632990084990676
lfemur -35.39293652427541 7.698983410211609 -19.04818947723869
ltibia 50.01579428441877
lfoot -10.323729698144593 0.6036164391140062
ltoes -10.107394318265541
rfemur -26.66435045809179 -1.5803200014657375 21.479071455363464
rtibia 31.86674577490622
rfoot -13.5083604325866 3.327886063810771
rtoes 9.40790715008859
lowerback 19.838858959052033 1.6442734978105695 -1.2956091114248263
upperback 6.196580289028413 1.9759089558671485 1.2542558641450672
thorax 1.9835562167301513 0.8477687472812678 1.251144501733556
lowerneck -13.344905077169594 0.3172224668865699 0.3108675968095379
upperneck 23.981589196950374 0.397441318712206 -0.281887131483427
head 9.809465350748614 0.0839932113004076 -0.152008579054946
lclavicle 3.876573610016893e-16 -1.4346598696345227e-15
lhumerus -31.172689838359034 -4.756768301145899 77.7185835673717
lradius 26.47790951655721
lwrist 24.490634881017606
lhand -25.781452979474366 -7.141109236338374
lfingers 7.12502
lthumb 1.3994201868187677 21.973083690540246
rclavicle 3.8686202555128526e-16 -1.436227735562538e-15
rhumerus -29.125196064930215 -5.847199052152659 -70.73798459470918
rradius 36.73329429691011
rwrist 22.58445912566033
rhand -20.99893327920267 -24.419249438536106
rfingers 7.12502
rthumb 4.884681530103884 -54.39625556322099
116
root 0.48771992016346427 17.247649834744553 14.19000941480784 10.127443103841719 -2.391195655683784 -2.636019325205477
lfemur -35.1232942494589 7.613899333679513 -19.091370849702155
ltibia 49.805856057514035
lfoot -10.278568633515471 0.5048970841790421
ltoes -10.022633914499185
rfemur -25.874434603550295 -1.479943077278814 21.443729249844942
rtibia 31.30801839270452
rfoot -13.39889363193817 3.3213666302205493
rtoes 9.497082371239337
lowerback 20.36468249305741 1.6724465093583427 -1.244236406360532
upperback 6.19372311406502 2.0200509888670637 1.2708189170837083
thorax 1.9469519982719983 0.8652435471464752 1.2321862472069047
lowerneck -13.371595974971058 0.29662179924683035 0.3291296455568614
upperneck 24.136649299500828 0.3559808459729754 -0.2705233484023726
head 9.8076301819817 0.06443767956617963 -0.13832924843200703
lclavicle 3.8758662111620586e-16 -1.4347784229334334e-15
lhumerus -31.627155777374156 -4.630273580443609 77.64356633615449
lradius 26.681737459744376
lwrist 25.378131249328767
lhand -25.709992683934647 -7.104846757092318
lfingers 7.12502
lthumb 1.532746680839726 22.093935320785747
rclavicle 3.8695373719860546e-16 -1.436097653372195e-15
rhumerus -29.063793088481667 -5.541853290500868 -70.69042534817802
rradius 36.698286650525844
rwrist 22.82318367102979
rhand -20.987474326868085 -24.402443576138374
rfingers 7.12502
rthumb 4.732699372974012 -54.548551515627175
117
root 0.4884836334991059 17.239249261970723 14.140639839778558 10.085338032621355 -2.4187467192193615 -2.6239010961782023
lfemur -34.91395054265528 7.549207804413665 -19.14096076202015
ltibia 49.577621791191305
lfoot -10.207383721893464 0.40716522016775336
ltoes -9.980753128447029
rfemur -25.092136488422046 -1.3765019648520058 21.40138430649604
rtibia 30.815833501285184
rfoot -13.275312001602751 3.352607887219173
rtoes 9.496119221118942
lowerback 20.83905792460751 1.7084740289409617 -1.2394673999885686
upperback 6.192074427320554 2.0732746241372744 1.2875183043285539
thorax 1.880643234495122 0.8875598224471435 1.227693717987827
lowerneck -13.419991087560668 0.27538534503446327 0.33666894169059425
upperneck 24.235721762691735 0.31926371694104627 -0.2599057675126553
head 9.846986377834735 0.04735146115676131 -0.12183718129151247
lclavicle 3.8769064912883573e-16 -1.434640717966921e-15
lhumerus -31.705558487561152 -4.384753405403259 77.64310365850392
lradius 26.868795870669146
lwrist 26.33242052347856
lhand -25.643387679485837 -7.1297605825753045
lfingers 7.12502
lthumb 1.6083599490710192 22.144519766736884
rclavicle 3.870145059690349e-16 -1.4360111916293506e-15
rhumerus -28.974072007771312 -5.475701377378835 -70.58028995867409
rradius 36.445982772244456
rwrist 23.18942707697422
rhand -21.01731840476844 -24.420452963363083
rfingers 7.12502
rthumb 4.54830588223261 -54.71036789212928
118
root 0.48709665836488564 17.227235165892818 14.041355477784442 10.0778622674361 -2.473440687410941 -2.594478035780542
lfemur -34.82413294395336 7.517139016277696 -19.2179525791397
ltibia 49.34812988894964
lfoot -10.126566634310157 0.35436455371968023
ltoes -10.00008008140959
rfemur -24.389762417341505 -1.2648793210258449 21.347330641365655
rtibia 30.428112006206945
rfoot -13.145140659332759 3.402276020441341
rtoes 9.48898387430406
lowerback 21.314392956493563 1.76218374035795 -1.2655578533967118
upperback 6.181230525896902 2.13639445519391 1.2957867822614368
thorax 1.7835477611774173 0.9117973006573656 1.2308216609176927
lowerneck -13.486133651575283 0.25999733663353564 0.3554219217029214
upperneck 24.20016615760059 0.29062868069705583 -0.2581602723028298
head 9.844692746258305 0.03410999621322425 -0.11307376405479161
lclavicle 3.8761865781576674e-16 -1.4347250815578157e-15
lhumerus -31.418574078403527 -4.05225229974871 77.71887016522966
lradius 27.016304175467667
lwrist 27.231073406452907
lhand -25.57332579161879 -7.18754143826083
lfingers 7.12502
lthumb 1.6305941923690903 22.133349380129037
rclavicle 3.872117671382279e-16 -1.4357311874844124e-15
rhumerus -28.901504634247544 -5.612464333684556 -70.43928382943942
rradius 36.02765520939419
rwrist 23.60489387711999
rhand -21.088569487584248 -24.46106333582171
rfingers 7.12502
rthumb 4.340256556688335 -54.88338016369936
